<svg width="16" height="21" viewBox="0 0 16 21" fill="none" xmlns="http://www.w3.org/2000/svg">
<path fill-rule="evenodd" clip-rule="evenodd" d="M4.12902 2.84668C3.4084 2.84668 2.82422 3.43086 2.82422 4.15148V17.5419C2.82422 18.2625 3.4084 18.8467 4.12902 18.8467H12.6718C13.3924 18.8467 13.9766 18.2625 13.9766 17.5419V4.15148C13.9766 3.43086 13.3924 2.84668 12.6718 2.84668H4.12902ZM0.824219 4.15148C0.824219 2.32629 2.30383 0.84668 4.12902 0.84668H12.6718C14.497 0.84668 15.9766 2.32629 15.9766 4.15148V17.5419C15.9766 19.3671 14.497 20.8467 12.6718 20.8467H4.12902C2.30383 20.8467 0.824219 19.3671 0.824219 17.5419V4.15148Z" fill="#F75276"/>
<path fill-rule="evenodd" clip-rule="evenodd" d="M12.2332 6.70483H4.55469V4.70483H12.2332V6.70483Z" fill="#F75276"/>
<path fill-rule="evenodd" clip-rule="evenodd" d="M12.2332 10.5503H4.55469V8.55029H12.2332V10.5503Z" fill="#F75276"/>
<path fill-rule="evenodd" clip-rule="evenodd" d="M12.2332 14.3833H4.55469V12.3833H12.2332V14.3833Z" fill="#F75276"/>
<path d="M8.40039 17.8467C8.95268 17.8467 9.40039 17.399 9.40039 16.8467C9.40039 16.2944 8.95268 15.8467 8.40039 15.8467C7.84811 15.8467 7.40039 16.2944 7.40039 16.8467C7.40039 17.399 7.84811 17.8467 8.40039 17.8467Z" fill="#F75276"/>
</svg>
