<svg width="24" height="24" viewBox="0 0 24 24" fill="none" xmlns="http://www.w3.org/2000/svg">
<path d="M17.4361 2.51472L17.9383 4.05897C18.0387 4.36029 18.3149 4.57372 18.6413 4.57372H20.2735C20.9891 4.57372 21.2904 5.49023 20.7129 5.90455L19.3946 6.85872C19.131 7.04705 19.0306 7.38603 19.131 7.68735L19.6332 9.2316C19.8592 9.90957 19.0808 10.4745 18.4907 10.0602L17.1724 9.10605C16.9088 8.91773 16.5572 8.91773 16.3061 9.10605L14.9879 10.0602C14.4103 10.4871 13.6319 9.90957 13.8454 9.2316L14.3476 7.68735C14.448 7.38603 14.335 7.04705 14.0839 6.85872L12.7656 5.90455C12.1881 5.47768 12.4894 4.57372 13.2051 4.57372H14.8372C15.1511 4.57372 15.4398 4.37285 15.5403 4.05897L16.0425 2.51472C16.2559 1.8242 17.2101 1.8242 17.4361 2.51472Z" fill="#7C47E1"/>
<path d="M16.733 12.1819H10.7945H6.91504V14.1405H16.733V12.1819Z" fill="#7C47E1"/>
<path d="M16.733 16.0991H6.91504V18.0577H16.733V16.0991Z" fill="#7C47E1"/>
<path d="M10.7945 8.2522H6.91504V10.2108H10.7945V8.2522Z" fill="#7C47E1"/>
<path d="M18.6916 12.182V20.0288H4.94392V4.32258H10.7945V2.36401H3.96464C3.42477 2.36401 2.98535 2.80344 2.98535 3.3433V21.0206C2.98535 21.5605 3.42477 21.9999 3.96464 21.9999H19.6834C20.2233 21.9999 20.6627 21.5605 20.6627 21.0206V12.182H18.6916Z" fill="#7C47E1"/>
</svg>
