<svg width="69" height="68" viewBox="0 0 69 68" fill="none" xmlns="http://www.w3.org/2000/svg">
<path d="M34.5 68C53.2777 68 68.5 52.7777 68.5 34C68.5 15.2223 53.2777 0 34.5 0C15.7223 0 0.5 15.2223 0.5 34C0.5 52.7777 15.7223 68 34.5 68Z" fill="white"/>
<path d="M32.7363 36.4057L17.5005 29.5095V42.3397C17.5005 44.1039 18.9439 45.3869 20.5477 45.3869H45.0854C46.8495 45.3869 48.1326 43.9435 48.1326 42.3397V29.5095L32.7363 36.4057Z" fill="#70D4F9"/>
<path d="M32.7361 33.3587L48.2927 26.4625V23.0945C48.2927 21.3304 46.8493 20.0474 45.2455 20.0474H20.5474C18.7833 20.0474 17.5002 21.4908 17.5002 23.0945V26.4625L32.7361 33.3587Z" fill="#70D4F9"/>
<path fill-rule="evenodd" clip-rule="evenodd" d="M44.4441 50.5188L43.8026 41.8584C43.8026 41.8584 43.4818 41.698 43.1611 41.698C43.1611 41.698 38.6705 41.698 37.8686 42.4999C37.0667 43.1414 36.2648 48.4338 38.5101 51.481C39.1516 52.4433 43.6422 51.1603 43.6422 51.1603C43.963 50.9999 44.2837 50.8395 44.4441 50.5188Z" fill="#9364ED"/>
<path fill-rule="evenodd" clip-rule="evenodd" d="M43.0009 42.3396C44.4443 40.7358 46.6896 38.4906 47.8122 36.2453C47.9726 35.7641 48.4538 35.6038 48.9349 35.6038C49.416 35.6038 49.8972 35.9245 50.0575 36.4056C50.2179 36.566 50.2179 36.8868 50.2179 37.0472C50.3783 38.3302 49.7368 39.7736 49.2556 40.5755C49.2556 40.7358 49.2556 40.8962 49.2556 40.8962C49.2556 41.0566 49.416 41.0566 49.5764 41.0566C50.8594 40.8962 53.7462 40.7358 54.5481 41.6981C55.8311 43.4622 53.7462 49.8773 52.3028 50.8396C50.8594 51.8019 43.9632 51 42.8405 49.2358C42.0387 47.7924 42.0387 43.4622 43.0009 42.3396Z" fill="#A892F7"/>
</svg>
