<svg width="25" height="24" viewBox="0 0 25 24" fill="none" xmlns="http://www.w3.org/2000/svg">
<path d="M20.4014 22H4.40137C4.13615 22 3.8818 21.8946 3.69426 21.7071C3.50672 21.5196 3.40137 21.2652 3.40137 21V3C3.40137 2.73478 3.50672 2.48043 3.69426 2.29289C3.8818 2.10536 4.13615 2 4.40137 2H20.4014C20.6666 2 20.9209 2.10536 21.1085 2.29289C21.296 2.48043 21.4014 2.73478 21.4014 3V21C21.4014 21.2652 21.296 21.5196 21.1085 21.7071C20.9209 21.8946 20.6666 22 20.4014 22ZM19.4014 20V4H5.40137V20H19.4014ZM7.40137 6H11.4014V10H7.40137V6ZM7.40137 12H17.4014V14H7.40137V12ZM7.40137 16H17.4014V18H7.40137V16ZM13.4014 7H17.4014V9H13.4014V7Z" fill="#0091DD"/>
</svg>
